<svg xmlns="http://www.w3.org/2000/svg" viewBox="0 0 420.83 284.54"><defs><style>.cls-1{fill:#e14646;}</style></defs><g id="Layer_2" data-name="Layer 2"><g id="Layer_1-2" data-name="Layer 1"><path class="cls-1" d="M46.5,90.09c10.74-3.75,8.58-18,8.87-28.32-.23-11.68-2.57-16.72-14.13-19.45C58,41.19,55,18,50.11,9.1,45.08,1.49,34.94,0,24.36,0A24.39,24.39,0,0,0,0,24.44V91.73C9.78,91.45,39.65,92.71,46.5,90.09ZM23.79,15.91c6.69-.36,7.85,2.16,7.79,8.7-.19,9.38.53,12-7.79,11.64Zm0,34.58c7.59.49,7.51.72,7.79,8.53-.63,7.21,3,18-7.79,17.06Z"/><polygon class="cls-1" points="102.25 73.42 84.8 73.42 84.8 53.31 99.65 53.31 99.65 35.91 84.8 35.91 84.8 18.57 100.67 18.57 100.67 0.26 61.01 0.26 61.01 91.73 102.25 91.73 102.25 73.42"/><polygon class="cls-1" points="126.08 50.15 138.45 91.73 159.3 91.73 159.3 0.26 139.41 0.26 139.41 41.45 126.08 0.26 106.19 0.26 106.19 91.73 126.08 91.73 126.08 50.15"/><path class="cls-1" d="M186,90.52c12.63-5.94,8.05-13.64,9.09-29.13V.26H171.27c-.1,3.76.25,69.87-.23,71.36-.66,4.23-4.83,4.66-8.81,4.12v16C168.23,91.65,181.44,92.19,186,90.52Z"/><path class="cls-1" d="M222,75.29h8.5l1.28,16.44h24.31L242.49.26H208.11L196,91.73h24.6Zm4.26-54.63q1.81,22.87,3.62,38.41h-8.19Q222.62,46.93,226.26,20.66Z"/><path class="cls-1" d="M278.06,31.39l8.73,60.34h14.74L309.81,30l0,61.75h20.79V.26H299.68L294.22,43C292.5,31.73,289.69,10.44,288,.26H257.24V91.73H278Z"/><rect class="cls-1" x="337.29" y="0.26" width="23.79" height="91.47"/><path class="cls-1" d="M401,.26V41.45L387.61.26H367.72V91.73h19.89V50.15L400,91.73h20.84V20.15A19.88,19.88,0,0,0,401,.26Z"/><path class="cls-1" d="M354.66,94.56H0v8.18a27.18,27.18,0,0,0,27.18,27.18h0V271.26H73.12V129.92H89.07c-4.15,16.71-2.16,56.87-2.66,79.87-2.64,46.06,10.47,74,57.15,74.75,46.95-.63,59.72-29,57.14-74.75-.49-22.88,1.4-63.58-2.64-79.87h12.61V271.26c43.22-.62,121.35,10.11,117-41.5,3.15-32.25-9.86-51.14-33.69-53.94,23.17-4.39,21.24-26.68,19.52-45.9h9.13l22.18,77.38v64h42.57v-64l23-77.38h0l10.51-35.36ZM149.83,130.41c3.09,8.34.81,93.19,1.47,104.26,0,11.18-.47,10.29-1.41,13.25-1.16,5.73-11.23,6-12.73.6-.9-2.59-1.35-1.41-1.35-12.44.91-11.68-2.17-97.46,1.92-106.16H149.6C149.68,130.08,149.76,130.23,149.83,130.41Zm131.85,94.14c0,16.48-18.59,16.27-25.06,16.48V191.59C280.29,191.71,283.11,199.57,281.68,224.55ZM270.15,130c2.78,5.28,1.32,29.26-.33,30.67-1.72,3.62-8.31,3.34-13.2,3.44V129.92h13.5Zm95.67,34.22q-.76-10.89-4.73-34.28h10.35Q367.89,149,365.82,164.2Z"/></g></g></svg>