<?xml version="1.0" encoding="UTF-8" standalone="no"?><!-- Generator: Gravit.io --><svg xmlns="http://www.w3.org/2000/svg" xmlns:xlink="http://www.w3.org/1999/xlink" style="isolation:isolate" viewBox="0 0 611 611" width="611pt" height="611pt"><defs><clipPath id="_clipPath_2zfa3boh6FNyOkB9zT4Cm84iY9vA0NWV"><rect width="611" height="611"/></clipPath></defs><g clip-path="url(#_clipPath_2zfa3boh6FNyOkB9zT4Cm84iY9vA0NWV)"><rect x="0" y="0" width="610.63" height="610.63" transform="matrix(1,0,0,1,0,0)" fill="none"/><clipPath id="_clipPath_7KSpsgRxupOAmqFAFnlf5LCTNooKCwdC"><rect x="0" y="0" width="610.63" height="610.63" transform="matrix(1,0,0,1,0,0)" fill="rgb(255,255,255)"/></clipPath><g clip-path="url(#_clipPath_7KSpsgRxupOAmqFAFnlf5LCTNooKCwdC)"><g><g><g><path d=" M 610.63 515.37 L 610.63 619.37 L 590.72 607.63 L 461.72 531.55 L 306.83 617 L 151.94 702.39 L 138.33 709.89 L 0 786.14 L 0 0 L 362 0 C 434.173 0 490.98 15.707 532.42 47.12 C 534.38 48.613 536.297 50.137 538.17 51.69 C 575.177 82.423 593.98 125.773 594.58 181.74 L 594.58 184.49 C 594.58 225.95 583.717 260.877 561.99 289.27 C 540.263 317.663 511.353 336.547 475.26 345.92 C 518.027 355.92 551.283 376.477 575.03 407.59 C 598.777 438.703 610.643 474.63 610.63 515.37 Z  M 368.49 519.89 C 378.163 512.21 383 499.673 383 482.28 C 383 448.193 363.28 431.15 323.84 431.15 L 222.6 431.15 L 222.6 531.42 L 323.87 531.42 C 343.923 531.42 358.797 527.577 368.49 519.89 Z  M 368 227.61 C 368 210.23 363.153 197.36 353.46 189 C 343.767 180.64 328.893 176.463 308.84 176.47 L 222.6 176.47 L 222.6 276.74 L 308.83 276.74 C 328.877 276.74 343.75 272.74 353.45 264.74 C 363.15 256.74 368 244.363 368 227.61 Z " fill="rgb(255,255,255)"/></g></g></g></g></g></svg>