<?xml version="1.0" encoding="UTF-8" standalone="no"?>
<!DOCTYPE svg PUBLIC "-//W3C//DTD SVG 1.1//EN" "http://www.w3.org/Graphics/SVG/1.1/DTD/svg11.dtd">
<svg width="100%" height="100%" viewBox="0 0 611 611" version="1.1" xmlns="http://www.w3.org/2000/svg" xmlns:xlink="http://www.w3.org/1999/xlink" xml:space="preserve" xmlns:serif="http://www.serif.com/" style="fill-rule:evenodd;clip-rule:evenodd;stroke-linejoin:round;stroke-miterlimit:2;">
    <rect id="Artboard1" x="0" y="0" width="610.63" height="610.63" style="fill:none;"/>
    <clipPath id="_clip1">
        <rect id="Artboard11" serif:id="Artboard1" x="0" y="0" width="610.63" height="610.63"/>
    </clipPath>
    <g clip-path="url(#_clip1)">
        <g id="Layer_2">
            <g id="Layer_1-2">
                <path d="M610.63,515.37L610.63,619.37L590.72,607.63L461.72,531.55L306.83,617L151.94,702.39L138.33,709.89L0,786.14L0,0L362,0C434.173,0 490.98,15.707 532.42,47.12C534.38,48.613 536.297,50.137 538.17,51.69C575.177,82.423 593.98,125.773 594.58,181.74L594.58,184.49C594.58,225.95 583.717,260.877 561.99,289.27C540.263,317.663 511.353,336.547 475.26,345.92C518.027,355.92 551.283,376.477 575.03,407.59C598.777,438.703 610.643,474.63 610.63,515.37ZM368.49,519.89C378.163,512.21 383,499.673 383,482.28C383,448.193 363.28,431.15 323.84,431.15L222.6,431.15L222.6,531.42L323.87,531.42C343.923,531.42 358.797,527.577 368.49,519.89ZM368,227.61C368,210.23 363.153,197.36 353.46,189C343.767,180.64 328.893,176.463 308.84,176.47L222.6,176.47L222.6,276.74L308.83,276.74C328.877,276.74 343.75,272.74 353.45,264.74C363.15,256.74 368,244.363 368,227.61Z" style="fill:rgb(99,105,176);fill-rule:nonzero;"/>
            </g>
        </g>
    </g>
</svg>
