<svg xmlns="http://www.w3.org/2000/svg" viewBox="0 0 610.63 1042.32"><defs><style>.cls-1{fill:#565e9a;}.cls-2{fill:#6369b0;}</style></defs><g id="Layer_2" data-name="Layer 2"><g id="Layer_1-2" data-name="Layer 1"><polygon class="cls-1" points="610.63 784.67 610.63 952.95 461.71 1042.32 461.71 874.03 464.52 872.35 610.63 784.67"/><polygon class="cls-1" points="610.63 619.33 610.63 784.67 461.71 702.53 468.56 698.7 563.9 645.44 610.63 619.33"/><path class="cls-2" d="M610.63,515.37v104l-19.91-11.74-129-76.08L306.83,617,151.94,702.39l-13.61,7.5L0,786.14V0H362Q470.26,0,532.42,47.12q2.94,2.24,5.75,4.57,55.51,46.1,56.41,130.05c0,.92,0,1.83,0,2.75q0,62.19-32.59,104.78t-86.73,56.65q64.15,15,99.77,61.67T610.63,515.37Zm-242.14,4.52Q383,508.37,383,482.28q0-51.13-59.16-51.13H222.6V531.42H323.87Q353.95,531.42,368.49,519.89ZM368,227.61q0-26.07-14.54-38.61t-44.62-12.53H222.6V276.74h86.23q30.07,0,44.62-12T368,227.61Z"/><polygon class="cls-2" points="461.71 874.03 461.71 1042.32 306.83 957.3 306.83 789.02 461.71 874.03"/><polygon class="cls-1" points="306.83 789.02 306.83 957.3 151.94 1042.32 151.94 875.51 156.15 873.19 306.83 789.02"/><polygon class="cls-2" points="151.94 875.51 151.94 1042.32 0 958.98 0 786.14 151.94 875.51"/></g></g></svg>