<svg xmlns="http://www.w3.org/2000/svg" viewBox="0 0 521.35 539.01"><g id="Layer_2" data-name="Layer 2"><g id="Layer_1-2" data-name="Layer 1"><path d="M218.35,37.82c-2.31,7-11.92,9.64-18.62,8.26a12.48,12.48,0,0,1-9.83-9l8.52-1.75a6.49,6.49,0,0,0,11.15,2.25c2.14-3.45-.39-7.4-4.21-8-2.87-.65-8.87-1.12-11.54-2C186.56,26,183.25,16,188.16,10.26c3.81-5,14.63-7.1,20-4a11.8,11.8,0,0,1,6,7.3l-8.63,1.77c-1.35-4.38-7.38-5.2-10.21-1.84-1.4,1.63-.88,5.11,1,6.37,2.38,1.63,4.51,1.62,7.8,2.1,4.94.85,8.15.82,11.66,4C218.52,28.47,219.8,34,218.35,37.82Z"/><path d="M244.33,6.79l.19,10.61,14.5-.26.12,6.26-14.5.27.2,11,16.24-.29.12,6.55-24.42.45L236,.44,260.45,0l.12,6.5Z"/><path d="M290.51,9.4l-1.66,10.48,14.32,2.27-1,6.18-14.32-2.26L286.15,37l16,2.54-1,6.47-24.12-3.81L283.44,1.7l24.12,3.82-1,6.41Z"/><path d="M385,76.49c-4.26,2.18-9,1.36-13.39-1.33-6.61-3.78-10.71-11.5-7-18.56l7.43,4.52a6.49,6.49,0,0,0,6.64,9.24,5.17,5.17,0,0,0,3.69-5.57c-.63-2.94-2.25-4.32-4.4-7.05-4.45-5.14-8-10.44-3.93-16.86,4-6.57,11.4-6.44,17.76-2.5,6.71,4,9.9,10.54,6.61,17.47L391,51.27c2-4.13-1.87-8.84-6.22-8.3-2.14.24-4.13,3.14-3.62,5.33.62,2.82,2.19,4.26,4.28,6.85,3,4,5.41,6.15,5.81,10.87C391.52,69.76,388.67,74.7,385,76.49Z"/><path d="M444.46,83.44c4.67,14.51-10.61,30.44-25.29,26.45-15.54-4.15-21.28-22.86-9.66-34.59C420.68,63.19,439.64,68.15,444.46,83.44Zm-16.58-6.87c-8.84-2-18.72,8.28-16.28,17,3.26,9.8,14.43,12.07,21.47,4.24C440.57,90.45,437.81,79.38,427.88,76.57Z"/><path d="M492.42,146.46,458,167.81l-4.28-6.89,24-14.9-29.48,6.07-3.73-6L463,122.43l-23.9,14.83-4.32-6.95L469.14,109l5.23,8.43L455,143.9l32.24-5.81Z"/><path d="M499.47,180l-10,3.47,4.75,13.71-5.92,2.05-4.75-13.7-10.41,3.6,5.32,15.35-6.2,2.15-8-23.08,38.69-13.41,8,23.08-6.13,2.12Z"/><path d="M517.76,300.54c-8.35,12.8-30.21,11.06-36.49-2.85-6.61-14.66,4.24-30.94,20.68-29.37C518.39,269.31,526.55,287.13,517.76,300.54Zm-5.18-17.19c-4-8.14-18.25-9.26-23.47-1.83-5.52,8.74-.23,18.78,10.3,19.3C509.89,301.94,516.68,292.84,512.58,283.35Z"/><path d="M506.5,358.87,500.27,357l4.9-16.51-10.51-3.12-3.92,13.24-6-1.79,3.93-13.23-16.52-4.9,2.33-7.84,39.26,11.65Z"/><path d="M440.86,461.75l-30.57-26.54,5.33-6.14,21.32,18.52-14.52-26.36,4.64-5.34,28.05,10.6-21.24-18.44,5.36-6.17,30.57,26.54-6.5,7.49-31.06-10.68,15.09,29.07Z"/><path d="M394.3,498.43l-4.23-29.72-8.34-11.65,6.7-4.79,8.34,11.65,26.81,13.54-7.64,5.47-17.5-9.51,3.36,19.64Z"/><path d="M269.28,539l3.22-42,9.95-1.65,12.4,28.05,2.77-30.56,9.9-1.63,16.58,38.76-8.76,1.45L304,501.11l-2.84,32.62-8.87,1.47-13.24-30-1,32.33Z"/><path d="M214.38,533.49c-12.59-8.67-10.29-30.48,3.77-36.4,14.83-6.24,30.83,5,28.83,21.41C245.58,534.92,227.56,542.62,214.38,533.49Zm17.31-4.73c8.25-3.8,9.72-18,2.43-23.43-8.6-5.74-18.77-.7-19.56,9.81C213.17,525.6,222.1,532.61,231.69,528.76Z"/><path d="M173,483l4,18.16,3.41,1.15,5.09-15.12,7.75,2.61-13,38.81-14.79-5q-6.76-2.28-9.2-6.77c-3-5.07-.79-13.41,4.3-16.42a12.69,12.69,0,0,1,8.39-1.58l-4.46-18.76Zm5.6,24.64c-5.44-1.56-12.47-6-15,1.5-1.33,4.08.46,6.79,4.66,8.18l6.37,2.14Z"/><path d="M126.61,483.79l-4.48-26.72,8.57,5,3.62,23.81,9.45-16.18,7.06,4.12-20.64,35.37-7.07-4.13,9.27-15.88L110,497.4l-8.51-5Z"/><path d="M45.85,413.79l5.41-4.1,14.89,19.65-5.41,4.1Z"/><path d="M23.67,375.35l6-3.08,11.21,22-6,3.09Z"/><path d="M8.6,333.6l6.49-2,7.17,23.59-6.49,2Z"/><path d="M1.12,289.84l6.74-.8,2.91,24.48-6.74.8Z"/><path d="M1.38,245.48l6.77.38L6.78,270.47,0,270.09Z"/><path d="M9.37,201.81,16,203.37l-5.68,24L3.7,225.8Z"/><path d="M25,160.22l6.22,2.7-9.81,22.61-6.23-2.7Z"/><path d="M47.59,122l5.66,3.75L39.61,146.33,34,142.57Z"/><path d="M76.56,88.41l4.91,4.68-17,17.84-4.91-4.68Z"/><path d="M110.91,60.37l4,5.47L95.07,80.44l-4-5.47Z"/></g></g></svg>