<svg xmlns="http://www.w3.org/2000/svg" viewBox="0 0 2429.78 2403.79"><defs><style>.cls-1{fill:#fff;}</style></defs><g id="Layer_2" data-name="Layer 2"><g id="Layer_1-2" data-name="Layer 1"><path class="cls-1" d="M2429.29,2014.45V359.37c0-72.74-74.47-97.9-74.47-97.9l-487.49-235C1760.8-39.36,1691,38.32,1691,38.32a102.29,102.29,0,0,1,23.37-11.69A144.53,144.53,0,0,0,1691,38.32L730.91,912.15l-433.1-327.9c-50.05-43.39-97.4,6.42-97.4,6.42L35,738.62c-71,57-11.83,99.62-11.83,99.62l393.52,357.33L23.12,1553.33s-40.44,30.09,0,83.84l182.72,166.2s43.4,46.61,107.51-6.41l417.2-316.35,977.92,888,3.75,4.15c41.92,42.9,92.72,28.85,92.72,28.85l562.46-277.17C2439.4,2075.35,2429.29,2014.45,2429.29,2014.45ZM1824.67,651V1740.24l-716.32-542.32Z"/></g></g></svg>