<svg xmlns="http://www.w3.org/2000/svg" viewBox="0 0 75.12 52.09"><defs><style>.cls-1{fill:#fff;}</style></defs><g id="Layer_2" data-name="Layer 2"><g id="Layer_1-2" data-name="Layer 1"><path class="cls-1" d="M55.73,15.23S49.63,34.37,49.16,36C49,34.37,44.53,0,44.53,0c-10.4,0-16,7.38-18.88,15.23,0,0-7.42,19.18-8,20.79,0-1.5-1.14-20.6-1.14-20.6C15.86,5.83,7.1,0,0,0L8.54,52.09c10.9,0,16.73-7.41,19.81-15.24,0,0,6.53-16.92,6.8-17.69.07.73,4.69,32.93,4.69,32.93,10.91,0,16.8-6.9,20-14.45L75.12,0C64.33,0,58.66,7.39,55.73,15.23Z"/></g></g></svg>