<svg xmlns="http://www.w3.org/2000/svg" viewBox="0 0 695.83 406.28"><defs><style>.cls-1{fill:#fff;}</style></defs><g id="Layer_2" data-name="Layer 2"><g id="Layer_1-2" data-name="Layer 1"><g id="An"><path id="path2242" class="cls-1" d="M258.79,309.11H115.27l-29.35,91a6.69,6.69,0,0,1-7.25,5.44H4.74c-4.35,0-5.43-2.18-4.35-6.89l125-357.31c1.09-4,2.17-6.88,4-12a141.56,141.56,0,0,0,2.17-25A4,4,0,0,1,134.84,0H235.59c3.26,0,4.71,1.09,5.07,3.26l141,396.09c1.09,4.35,0,6.16-4,6.16H296.83a5.79,5.79,0,0,1-6.15-4.35Zm-121-77.18H236c-2.18-8-5.45-17.76-9.07-27.91-3.62-10.51-6.88-21.74-10.52-33.34-4-12-7.24-23.55-11.23-35.51S197.9,112,194.63,100.74c-3.25-10.87-5.79-21-8.69-30.07h-.73a505.68,505.68,0,0,1-13,50c-5.8,18.48-11.6,38.06-17.76,57.26C149.33,197.5,143.54,215.62,137.74,231.93Z"/><path id="path2244" class="cls-1" d="M425.48,399.71V169.6c0-6.89,0-15.22-.36-23.56-.36-9.06-.36-17-.72-24.64s-.72-15.22-1.09-19.57a4.24,4.24,0,0,1,.72-4,6.48,6.48,0,0,1,4-1.09h62.35a16.76,16.76,0,0,1,6.14,1.09,7,7,0,0,1,3.27,4.35,88.73,88.73,0,0,1,2.54,8.69,85.28,85.28,0,0,1,2.17,12.68,129.43,129.43,0,0,1,41-23.91,146.75,146.75,0,0,1,46.75-7.61,111.54,111.54,0,0,1,36.25,5.8,92.33,92.33,0,0,1,58.71,57.25c6.15,15.94,8.68,36.6,8.68,62v183c0,4-1.45,5.44-5.06,5.44l-72.84.72c-3.28.37-5.81-1.45-6.18-4.71v-175c-.36-11.61-2.53-23.2-7.23-33.71-3.64-7.61-9.06-14.86-16-19.21a45.25,45.25,0,0,0-26.44-6.88c-10.16,0-20.31,1.44-29.36,5.43A82.17,82.17,0,0,0,509.56,187V400.8c0,4-1.45,5.43-5.07,5.43H430.93a4.87,4.87,0,0,1-5.45-4.34c-.36-1.46-.36-1.82,0-2.18Z"/></g></g></g></svg>