<svg xmlns="http://www.w3.org/2000/svg" viewBox="0 0 110.67 110.67"><defs><style>.cls-1{fill:#fff;fill-rule:evenodd;}</style></defs><g id="Layer_2" data-name="Layer 2"><g id="Layer_1-2" data-name="Layer 1"><path class="cls-1" d="M3.06,110.67H0L0,83.38,24.07,41.69H42.88ZM110.67,72.82v37.85H72.19L50.34,72.82ZM67.21,110.67H8L37.63,59.42ZM110.67,68.5H67.8L107.35,0h3.32ZM60.09,41.61a4.84,4.84,0,0,1,4,2.4l0,0,5,8.62,0,.07a4.79,4.79,0,0,1,0,4.67c-1.67,2.91-3.36,5.82-5,8.73a4.83,4.83,0,0,1-4.05,2.36c-3.17,0-9.52,0-9.53,0a4.79,4.79,0,0,1-4.08-2.31l-.06-.09-5-8.64a4.82,4.82,0,0,1,0-4.71l0-.06,5-8.67a4.88,4.88,0,0,1,4.05-2.41h9.53ZM48.14,0h54.23L73,50.8l-27.11-47ZM60.31,37.38H26.56L43.44,8.15Z"/></g></g></svg>