<svg xmlns="http://www.w3.org/2000/svg" viewBox="0 0 240.09 145.59"><defs><style>.cls-1{fill:#fff;}</style></defs><g id="Layer_2" data-name="Layer 2"><g id="Layer_1-2" data-name="Layer 1"><g id="Outlined_Mnemonics_Logos" data-name="Outlined Mnemonics Logos"><g id="Ae"><path id="path2199" class="cls-1" d="M90.93,108.77H40.22L29.86,140.94a2.39,2.39,0,0,1-2.58,1.91H1.65c-1.5,0-1.91-.82-1.5-2.46L44,14.58c.41-1.36.82-2.59,1.36-4.22a47.18,47.18,0,0,0,.82-8.86A1.36,1.36,0,0,1,47.31,0H82.62c.95,0,1.63.41,1.77,1.09L134.14,140.8c.41,1.5,0,2.18-1.37,2.18H104.29a2,2,0,0,1-2.18-1.5ZM48.13,81.64H82.75c-2-6.72-4.73-14.27-6.81-21.53-3.72-11.55-7.53-23.86-10.64-35.3H65c-2.65,12.8-7.05,25-10.9,37.75-1.78,7-4,13.36-6,19.08Z"/><path id="path2201" class="cls-1" d="M215,96.23H171.76A29.93,29.93,0,0,0,176,108.36a21.62,21.62,0,0,0,10,8.18c9.86,4.4,21.23,3.93,31.62,1.91a51.25,51.25,0,0,0,12.13-3.14c.69-.54,1.09-.27,1.09,1.09-.08.39.25,23-.27,22.49a3.11,3.11,0,0,1-.95,1,58.8,58.8,0,0,1-13.63,4.09,92.3,92.3,0,0,1-19.36,1.63c-25.3.5-45.68-11.72-52.74-35.57-10.65-35.21,8.53-79.1,50-77.42,13.11-.25,27.08,4.59,35.44,15.13,9.32,11.74,11.78,26.41,10.49,40.89-.27,2.59-.41,4.49-.54,5.72a2,2,0,0,1-1.91,1.77c-.82,0-2.32.14-4.5.28-5.33.82-11.91.11-17.85-.14Zm-43.21-19.9c5.42-.07,31.91.16,36.52-.14a6.58,6.58,0,0,0,3.14-1.09c.7-10.28-8.23-19.44-18.54-18.94C181.1,55.45,172.83,65.13,171.76,76.33Z"/></g></g></g></g></svg>