<svg xmlns="http://www.w3.org/2000/svg" viewBox="0 0 420.83 284.28"><defs><style>.cls-1{fill:#e14646;}</style></defs><g id="Layer_2" data-name="Layer 2"><g id="Layer_1-2" data-name="Layer 1"><path class="cls-1" d="M0,0H23.73Q35,0,40.76,1.75a16.89,16.89,0,0,1,9.35,7.09Q53.68,14.17,53.67,26q0,8-2.51,11.18t-9.92,4.85q8.25,1.88,11.19,6.19t2.94,13.26V70q0,9.27-2.12,13.74a11.39,11.39,0,0,1-6.75,6.1q-4.64,1.64-19,1.64H0ZM23.79,15.65V36q1.52-.06,2.37-.06,3.49,0,4.46-1.72t1-9.86a15.92,15.92,0,0,0-.79-6,3.77,3.77,0,0,0-2.06-2.17A18.5,18.5,0,0,0,23.79,15.65Zm0,34.58V75.82q5-.16,6.41-1.58t1.38-6.95V58.76q0-5.88-1.24-7.12T23.79,50.23Z"/><path class="cls-1" d="M61,0h39.66V18.31H84.79V35.65H99.65v17.4H84.79V73.17h17.46v18.3H61Z"/><path class="cls-1" d="M159.3,0V91.47H138.45L126.08,49.89V91.47H106.19V0h19.89l13.33,41.19V0Z"/><path class="cls-1" d="M195.06,0V61.13q0,13.73-.29,17.66a13.45,13.45,0,0,1-2.58,7.09A11.73,11.73,0,0,1,186,90.26q-3.91,1.21-11.83,1.21H162.23v-16c1.43.11,2.47.17,3.11.17a6,6,0,0,0,4-1.24,4.65,4.65,0,0,0,1.69-3,66,66,0,0,0,.23-7V0Z"/><path class="cls-1" d="M242.49,0l13.6,91.47H231.78L230.5,75H222l-1.43,16.44H196L208.11,0ZM229.88,58.81q-1.8-15.53-3.62-38.41-3.64,26.26-4.57,38.41Z"/><path class="cls-1" d="M330.63,0V91.47H309.84l0-61.75-8.28,61.75H286.79l-8.73-60.34,0,60.34H257.24V0H288q1.38,8.25,2.83,19.44l3.38,23.27L299.68,0Z"/><path class="cls-1" d="M361.07,0V91.47H337.29V0Z"/><path class="cls-1" d="M420.83,0V91.47H400L387.61,49.89V91.47H367.72V0h19.89L401,41.19V0Z"/><path class="cls-1" d="M201.7,209.53c0,19.09-.45,24.62-1.35,32.56A45.42,45.42,0,0,1,172.72,279q-12.09,5.28-28.16,5.28a71.59,71.59,0,0,1-27.4-5,45.66,45.66,0,0,1-28.34-36.67c-.94-7.83-1.41-13.54-1.41-33.09V177q0-28.64,1.35-40.54a45.42,45.42,0,0,1,27.63-36.91q12.09-5.26,28.17-5.28a71.61,71.61,0,0,1,27.39,5A45.66,45.66,0,0,1,200.29,136q1.41,11.73,1.41,41.07ZM152.3,147.1q0-13.26-1.47-16.95t-6-3.7a6.77,6.77,0,0,0-5.93,3q-2.06,3-2.05,17.66v88.72c0,11,.45,9.86,1.35,12.44s3,3.87,6.28,3.87,5.51-1.49,6.45-4.47,1.41-2.07,1.41-13.25Z"/><path class="cls-1" d="M80.37,129.41c.81-8.23,7.6-16,12.49-22.81,3.56-4.95,12.26-10.09,20-12.3H0v35.36H27.18V271H73.12V129.66"/><path class="cls-1" d="M210.67,94.3h45.84q21.72,0,32.9,3.38a32.64,32.64,0,0,1,18.07,13.69q6.87,10.3,6.87,33.21,0,15.49-4.85,21.6c-3.24,4.07-6,7.2-15.57,9.38,11,.35,33.7,11.5,33.7,37.57v16.38c0,11.94-2.81,41.49-53.81,41.49H210.67Zm46,30.23v39.3c2-.08,3.49-.11,4.58-.11q6.76,0,8.62-3.33t1.86-19q0-8.29-1.53-11.62c-1-2.22-2.34-3.62-4-4.21S261.35,124.6,256.62,124.53Zm0,66.8v49.44c6.47-.21,25.06,0,25.06-16.48V207.81C281.68,191.33,263.46,191.55,256.62,191.33Z"/><path class="cls-1" d="M420.83,94.3,387.33,207v64H344.76V207L312.45,94.3h42.21q9.9,51.74,11.16,69.64,3.82-28.29,12.8-69.64Z"/></g></g></svg>