<?xml version="1.0" encoding="utf-8"?>
<!-- Generator: Adobe Illustrator 25.3.1, SVG Export Plug-In . SVG Version: 6.00 Build 0)  -->
<svg version="1.1" id="Layer_1" xmlns="http://www.w3.org/2000/svg" xmlns:xlink="http://www.w3.org/1999/xlink" x="0px" y="0px"
	 viewBox="0 0 1766.7 2003.6" style="enable-background:new 0 0 1766.7 2003.6;" xml:space="preserve">
<style type="text/css">
	.st0{opacity:0.1;fill:#1730C6;enable-background:new    ;}
	.st1{fill:#FFFFFF;}
</style>
<g id="Layer_2_1_">
	<g id="Layer_1-2">
		<path class="st0" d="M1468,1688.2l137.5-1540.8H883.3v1702.9L1468,1688.2z"/>
		<path class="st1" d="M0,0l160.8,1803.3l721.5,200.3l0,0l723.5-200.6l161-1803L0,0z M1396.7,816.3L1396.7,816.3l-5.4,59.4
			l-52,582.3l-3.3,37.4l-452.6,125.4l0,0l-1,0.3l-453.1-125.7l-31-347.3h222l15.8,176.4l246.4,66.5h0.2l0,0l246.7-66.6l25.7-286.9
			H388.4l-19.8-221.2h805.5l20.1-226.5H348.9l-20.1-221.2h1107.9L1396.7,816.3z"/>
	</g>
</g>
</svg>
