<svg xmlns="http://www.w3.org/2000/svg" viewBox="0 0 198.17 106.1"><defs><style>.cls-1{fill:#fff;}</style></defs><g id="Layer_2" data-name="Layer 2"><g id="Layer_1-2" data-name="Layer 1"><g id="Outlined_Mnemonics_Logos" data-name="Outlined Mnemonics Logos"><g id="Dw"><path class="cls-1" d="M0,104.2V1.8A1.2,1.2,0,0,1,1,.5h.1C2.61.4,4.91.3,7.81.3s6.4-.1,10.4-.2,8.2-.1,12.7-.1c12.2,0,22.4,2.2,30.4,6.6a43.85,43.85,0,0,1,18.1,18.1c4,7.7,6,16.5,6,26.5a61.83,61.83,0,0,1-3.1,20.5,48.72,48.72,0,0,1-8.6,15.4,52.35,52.35,0,0,1-12.3,10.7,54.86,54.86,0,0,1-14.7,6.3,61.38,61.38,0,0,1-15.4,2H20c-4,0-7.8,0-11.2-.1s-6.1-.1-7.8-.2C.31,105.8,0,105.2,0,104.2Zm21.1-84.4V86.5c1.1,0,2.1,0,3.1.1s1.9.1,2.8.2,2.1.1,3.3.1a37.42,37.42,0,0,0,13.6-2.3,26.84,26.84,0,0,0,10.5-6.8,30.88,30.88,0,0,0,6.7-11.1,47.57,47.57,0,0,0,2.4-15,39.74,39.74,0,0,0-2.3-14.1,26.08,26.08,0,0,0-17.1-16.2,42.18,42.18,0,0,0-13.2-1.9c-2,0-3.7,0-5.1.1s-3,.1-4.7.2Z"/><path class="cls-1" d="M175,105.8h-18.7a1.37,1.37,0,0,1-1.2-.4,3.38,3.38,0,0,1-.6-1.2c-1.9-8-3.5-15.2-4.8-21.3s-2.4-11.4-3.2-15.7-1.5-7.9-2.1-10.9-1-5.5-1.3-7.6H143c-1,4.4-1.9,8.7-2.8,12.8s-1.8,8.3-2.8,12.5-2.1,8.8-3.4,13.8-2.6,10.5-4.1,16.4c-.2,1.1-.7,1.6-1.6,1.6h-18.7a2.23,2.23,0,0,1-1.4-.3,4.13,4.13,0,0,1-.7-1.1L88,27.1c-.3-.9.1-1.3,1.2-1.3h18.9c.9,0,1.4.3,1.5,1,2,8.8,3.7,16.4,5,22.8s2.4,11.8,3.1,16.3,1.4,8.2,1.9,11,.9,5.2,1.2,7h.3c.2-1.6.4-3.1.7-4.7q.6-2.85,1.5-7.5c.6-3.1,1.3-6.7,2.2-10.9s1.9-9,3.1-14.6,2.7-11.8,4.6-18.9a3.26,3.26,0,0,1,.4-1.3c.1-.2.5-.3,1.1-.3h19.6c.6,0,.9.4,1,1.1,1.7,7.3,3.1,13.7,4.3,19.2s2.1,10.4,3,14.7,1.5,7.9,1.9,10.9.9,5.6,1.3,7.7a44.62,44.62,0,0,1,.7,5.1h.3c.5-2,.9-4.4,1.3-7.1s.9-5.7,1.6-9.1,1.3-7.1,2.1-11.2,1.7-8.6,2.8-13.7,2.3-10.5,3.7-16.4c.2-.9.6-1.3,1.3-1.3h17.5c.9,0,1.2.5,1,1.4l-21.6,77.1a2.38,2.38,0,0,1-.6,1.1C175.91,105.7,175.51,105.9,175,105.8Z"/></g></g></g></g></svg>