<?xml version="1.0" encoding="utf-8"?>
<!-- Generator: Adobe Illustrator 25.3.1, SVG Export Plug-In . SVG Version: 6.00 Build 0)  -->
<svg version="1.1" id="Layer_1" xmlns="http://www.w3.org/2000/svg" xmlns:xlink="http://www.w3.org/1999/xlink" x="0px" y="0px"
	 viewBox="0 0 433.6 491.7" style="enable-background:new 0 0 433.6 491.7;" xml:space="preserve">
<style type="text/css">
	.st0{opacity:0.1;fill:#2236C6;enable-background:new    ;}
	.st1{fill:#FFFFFF;}
</style>
<g id="Layer_2_1_">
	<g id="Layer_1-2">
		<polygon class="st0" points="216.8,454.1 360.3,414.3 394,36.2 216.8,36.2 		"/>
		<path class="st1" d="M0,0l39.5,442.6l177.1,49.2l177.6-49.2L433.6,0L0,0z M351.3,105l-2.5,27.5l-1.1,12.2H140l5,55.6h197.8
			l-1.3,14.6l-12.8,142.9l-0.8,9.2l-111.1,30.8l0,0l-0.2,0.1L105.3,367l-7.6-85.2h54.5l3.9,43.3l60.4,16.3l0,0l0,0l60.5-16.3
			l6.3-70.4H95.3L82,105l-1.3-14.6h271.9L351.3,105z"/>
	</g>
</g>
</svg>
