<svg xmlns="http://www.w3.org/2000/svg" viewBox="0 0 168.76 119.77"><defs><style>.cls-1{fill:#fff;}</style></defs><g id="Layer_2" data-name="Layer 2"><g id="Layer_1-2" data-name="Layer 1"><path class="cls-1" d="M0,97.78,19.59,85.92c3.78,6.7,7.22,12.37,15.47,12.37,7.9,0,12.88-3.09,12.88-15.12V1.38H72V83.51c0,24.92-14.6,36.26-35.91,36.26-19.25,0-30.42-10-36.09-22"/><path class="cls-1" d="M85.07,95.2l19.59-11.34c5.15,8.42,11.86,14.61,23.71,14.61,10,0,16.33-5,16.33-11.86,0-8.25-6.53-11.17-17.53-16l-6-2.58C103.8,60.66,92.29,51.38,92.29,31.79,92.29,13.75,106,0,127.51,0c15.3,0,26.3,5.33,34.2,19.25L143,31.28C138.85,23.89,134.39,21,127.51,21c-7,0-11.51,4.46-11.51,10.31,0,7.21,4.47,10.14,14.78,14.6l6,2.58c20.45,8.77,32,17.7,32,37.81,0,21.65-17,33.5-39.87,33.5-22.34,0-36.78-10.65-43.82-24.57"/></g></g></svg>