<svg xmlns="http://www.w3.org/2000/svg" viewBox="0 0 144.41 108"><defs><style>.cls-1{fill:#fff;}</style></defs><g id="Layer_2" data-name="Layer 2"><g id="Layer_1-2" data-name="Layer 1"><g id="Outlined_Mnemonics_Logos" data-name="Outlined Mnemonics Logos"><g id="Ps"><path class="cls-1" d="M0,104.6V1.7C0,1,.3.6,1,.6,2.7.6,4.3.6,6.6.5S11.5.4,14.2.3,19.8.2,22.9.1,29,0,32,0c8.2,0,15,1,20.6,3.1A35.71,35.71,0,0,1,66,11.3a31.84,31.84,0,0,1,7.3,11.4,38.28,38.28,0,0,1,2.3,13q0,12.9-6,21.3A34.26,34.26,0,0,1,53.5,69.2c-6.8,2.5-14.3,3.4-22.5,3.4-2.4,0-4,0-5-.1s-2.4-.1-4.3-.1v32.1a1.24,1.24,0,0,1-1.1,1.4H1.2C.4,105.9,0,105.5,0,104.6ZM21.8,19.9V53.5c1.4.1,2.7.2,3.9.2H31a37.35,37.35,0,0,0,11.5-1.8,17.2,17.2,0,0,0,8.2-5.3c2.1-2.5,3.1-5.9,3.1-10.3a16.46,16.46,0,0,0-2.3-8.9,14.5,14.5,0,0,0-7-5.7,29.34,29.34,0,0,0-11.8-2c-2.6,0-4.9,0-6.8.1a22.9,22.9,0,0,0-4.1.1Z"/><path class="cls-1" d="M138,47.4a35.39,35.39,0,0,0-9.6-3.4,52.71,52.71,0,0,0-11.2-1.3,20.13,20.13,0,0,0-6,.7,5.13,5.13,0,0,0-3.1,2,5.3,5.3,0,0,0-.8,2.7,4.45,4.45,0,0,0,1,2.6,11.28,11.28,0,0,0,3.4,2.7c2.3,1.2,4.7,2.3,7.1,3.3A72.43,72.43,0,0,1,134.2,64a23.27,23.27,0,0,1,7.9,8.3,21.59,21.59,0,0,1,2.3,10.3,23.27,23.27,0,0,1-3.9,13.3,25.06,25.06,0,0,1-11.2,8.9c-4.9,2.1-10.9,3.2-18.1,3.2a68.88,68.88,0,0,1-13.6-1.3,40.34,40.34,0,0,1-10.2-3.2,2,2,0,0,1-1.1-1.9V84.2a1.09,1.09,0,0,1,.4-.9.76.76,0,0,1,.9.1A42.81,42.81,0,0,0,100,88.3a46.55,46.55,0,0,0,11.8,1.5c3.8,0,6.5-.5,8.3-1.4a4.65,4.65,0,0,0,2.7-4.2c0-1.4-.8-2.7-2.4-4s-4.9-2.8-9.8-4.7a61.18,61.18,0,0,1-14.2-7.2,25.89,25.89,0,0,1-7.6-8.5,21.46,21.46,0,0,1-2.3-10.2,23.52,23.52,0,0,1,3.4-12.1,24.65,24.65,0,0,1,10.5-9.2c4.7-2.4,10.6-3.5,17.7-3.5a86.21,86.21,0,0,1,12.4.9,35.19,35.19,0,0,1,8.6,2.3,1.76,1.76,0,0,1,1,.9,5,5,0,0,1,.2,1.2V46.4a1.23,1.23,0,0,1-.5,1A2.66,2.66,0,0,1,138,47.4Z"/></g></g></g></g></svg>