<svg xmlns="http://www.w3.org/2000/svg" viewBox="0 0 602.1 602.25"><defs><style>.cls-1{fill:#fdfdfd;fill-rule:evenodd;}</style></defs><g id="Layer_2" data-name="Layer 2"><g id="Layer_1-2" data-name="Layer 1"><path class="cls-1" d="M490.94,356.69c20-56.31,19-107.5-13.86-158.36-9.39-14.83-18.91-29.66-24.1-46.65-11.2-37.6,11-70.5,50.14-73C370.91-46,147.28-19.07,50.74,135.17c3.74,1.45,7.66,1.21,11.63,1.21,28,0,55.74-1.69,83.58-3.5,10.13-.72,15.85,3.5,16.21,11.45.31,7.23-4.94,11.81-14.58,12.9-7,.6-13.86,1.33-20.85,1.81-10.54.72-10.6.48-7.23,10.48,35.55,105.16,70.13,210.26,106.3,315.16,1.32-1.57,1.87-2.05,2-2.41q31.54-94.72,63-189.34a12,12,0,0,0,0-8.67Q269,224.59,247.43,164.82c-1.38-4-3.55-5.54-7.77-5.78-8.49-.37-17-1.09-25.31-2-9.4-1.21-14-8.93-10.61-17,3.08-7.47,9.35-7.59,16-7.11,32,1.93,64.06,4.58,96.24,2.78,19-1,38.15-2,57.19-2.9,9-.48,14.28,3.62,14.88,11,.66,7.11-4.64,12.29-13.13,13.37-7.24.73-14.47,1.46-21.82,1.94-11,.72-11.09.48-7.65,10.72,35.4,105,70.1,208.64,105.75,314C465,441.13,475.78,398.6,490.94,356.69Z"/><path class="cls-1" d="M333.67,401.4c-8.74-24.1-17.66-48.2-27.36-74.84C276.18,414.06,246.89,499,217.49,584c-1.7,4.94-.25,6.51,4.51,7.83,58,15.07,115.58,14,172.83-4.45,4.64-1.57,6-2.66,4-7.84Q366.07,490.6,333.67,401.4Z"/><path class="cls-1" d="M169.94,571.7c-47.79-131-95.33-261.17-143.42-393C-38,317.28,17.3,499,169.94,571.7Z"/><path class="cls-1" d="M601.58,283.41a284.93,284.93,0,0,0-33.14-120.64c-4.34.72-2.23,3.37-1.93,5.66,2.23,38.33-3.91,75.33-16.63,111.49C517,374.28,484.35,466.82,452,561.57,551.36,504,608.15,397.58,601.58,283.41Z"/></g></g></svg>